<?xml version="1.0" encoding="UTF-8" standalone="no"?>
<svg
   xmlns:dc="http://purl.org/dc/elements/1.1/"
   xmlns:cc="http://creativecommons.org/ns#"
   xmlns:rdf="http://www.w3.org/1999/02/22-rdf-syntax-ns#"
   xmlns:svg="http://www.w3.org/2000/svg"
   xmlns="http://www.w3.org/2000/svg"
   xmlns:sodipodi="http://sodipodi.sourceforge.net/DTD/sodipodi-0.dtd"
   xmlns:inkscape="http://www.inkscape.org/namespaces/inkscape"
   width="337"
   height="337"
   version="1.1"
   viewBox="0 0 315.93749 315.93649"
   xml:space="preserve"
   id="svg23"
   sodipodi:docname="godot_logo.svg"
   inkscape:version="1.0.2 (e86c870879, 2021-01-15, custom)"
   inkscape:export-filename="C:\Users\pwab\Desktop\godot_logo.png"
   inkscape:export-xdpi="145.85164"
   inkscape:export-ydpi="145.85164"><sodipodi:namedview
     pagecolor="#ffffff"
     bordercolor="#666666"
     borderopacity="1"
     objecttolerance="10"
     gridtolerance="10"
     guidetolerance="10"
     inkscape:pageopacity="0"
     inkscape:pageshadow="2"
     inkscape:window-width="1887"
     inkscape:window-height="1161"
     id="namedview25"
     showgrid="false"
     showguides="true"
     inkscape:guide-bbox="true"
     lock-margins="true"
     fit-margin-top="0"
     fit-margin-left="0"
     fit-margin-right="0"
     fit-margin-bottom="0"
     inkscape:zoom="1.1197034"
     inkscape:cx="215.71786"
     inkscape:cy="151.38288"
     inkscape:window-x="937"
     inkscape:window-y="0"
     inkscape:window-maximized="0"
     inkscape:current-layer="svg23" /><metadata
     id="metadata2"><rdf:RDF><cc:Work
         rdf:about=""><dc:format>image/svg+xml</dc:format><dc:type
           rdf:resource="http://purl.org/dc/dcmitype/StillImage" /><dc:title></dc:title></cc:Work></rdf:RDF></metadata><defs
     id="defs7"><clipPath
       id="a"><path
         d="M 0,595.276 H 841.89 V 0 H 0 Z"
         id="path4" /></clipPath></defs><g
     id="g865"
     transform="translate(-7.1290793,1.8556644)"><path
       d="m 303.4125,210.0225 c 0,0 -0.45949,-2.81912 -0.72811,-2.79375 l -51.155,4.93563 c -4.07038,0.39303 -7.23163,3.63912 -7.51725,7.718 l -1.40538,20.1425 -39.575,2.82337 -2.69187,-18.255 c -0.59947,-4.0605 -4.14525,-7.12137 -8.24963,-7.12137 h -53.99125 c -4.10287,0 -7.64875,3.06087 -8.24825,7.12137 l -2.69337,18.255 -39.575002,-2.82337 -1.405376,-20.1425 c -0.285599,-4.08025 -3.446874,-7.32638 -7.51725,-7.7195 l -51.18,-4.93425 c -0.264387,-0.0255 -0.458075,2.79649 -0.722462,2.79649 l -0.06925,11.07025 43.345,6.98988 1.4195,20.3225 c 0.287,4.11425 3.606625,7.44088 7.723625,7.73638 l 54.503755,3.888 c 0.20642,0.0141 0.41001,0.0226 0.6136,0.0226 4.09587,0 7.636,-3.06237 8.2355,-7.12275 l 2.76962,-18.78375 h 39.59375 l 2.76963,18.78375 c 0.59803,4.05913 4.1425,7.12138 8.244,7.12138 0.20076,0 0.40152,-0.007 0.59805,-0.0213 l 54.51125,-3.888 c 4.11562,-0.29549 7.43662,-3.62225 7.72362,-7.73638 l 1.418,-20.3225 43.32625,-7.021 z"
       fill="#ffffff"
       id="path11"
       style="stroke-width:1.25" /><path
       d="m 133.04062,7.4975 c -14.39812,3.200906 -28.64156,7.656188 -41.995308,14.3775 0.305391,11.790937 1.067625,23.08875 2.612907,34.564687 -5.185875,3.3225 -10.635938,6.174094 -15.48,10.063125 -4.9215,3.786188 -9.94875,7.409719 -14.404688,11.837813 C 54.87075,72.452094 45.449156,66.918125 35.742281,62.032812 25.278844,73.294062 15.494156,85.44875 7.5019687,99.049063 13.514906,108.77656 19.792594,117.89375 26.570719,126.54594 h 0.188597 V 210.02 c 0.15269,9.4e-4 0.306487,0.008 0.457762,0.0219 l 51.174375,4.93284 c 2.680594,0.25873 4.781063,2.41688 4.967625,5.10319 l 1.578375,22.59 44.639067,3.186 3.07434,-20.85 c 0.39868,-2.70319 2.71856,-4.70578 5.45287,-4.70578 h 53.99063 c 2.73291,0 5.05237,2.00259 5.451,4.70578 l 3.07434,20.85 44.64094,-3.186 1.5765,-22.59 c 0.18804,-2.68622 2.28703,-4.84303 4.96763,-5.10319 l 51.15375,-4.93284 c 0.15127,-0.0142 0.30324,-0.0204 0.45592,-0.0219 v -6.66141 l 0.0219,-0.007 v -76.80562 h 0.18859 c 6.77925,-8.65256 13.05282,-17.77031 19.06875,-27.496876 -7.98946,-13.60125 -17.77875,-25.755938 -28.24218,-37.01625 -9.70407,4.88475 -19.13063,10.418437 -28.03313,16.307812 -4.4549,-4.428094 -9.4725,-8.051531 -14.40093,-11.837812 -4.84238,-3.889407 -10.30032,-6.741 -15.47626,-10.063125 1.54107,-11.475938 2.30429,-22.77375 2.61113,-34.564688 C 225.79766,15.153219 211.55516,10.697656 197.14954,7.4970312 191.39816,17.163594 186.1386,27.629844 181.55797,37.863594 176.1261,36.955916 170.66891,36.619437 165.20516,36.554375 v -0.0073 c -0.0382,0 -0.0737,0.0073 -0.1062,0.0073 -0.0338,0 -0.0704,-0.0073 -0.10437,-0.0073 v 0.0073 c -5.47434,0.065 -10.9275,0.401531 -16.36031,1.309219 -4.57791,-10.232813 -9.83344,-20.7 -15.59344,-30.3665628 z M 26.671875,221.06 c 0.02125,4.9455 0.08423,10.36313 0.08423,11.44219 0,48.59812 61.65,71.95687 138.243745,72.22594 h 0.1886 c 76.59469,-0.26864 138.225,-23.62782 138.225,-72.22594 0,-1.09856 0.0671,-6.49388 0.0897,-11.44219 l -45.9975,4.43663 -1.58569,22.71093 c -0.19087,2.73713 -2.36785,4.91578 -5.10497,5.11228 l -54.51094,3.88913 c -0.1329,0.01 -0.26585,0.0146 -0.39733,0.0146 -2.70891,0 -5.04544,-1.98928 -5.44556,-4.70943 l -3.12563,-21.19782 h -44.47781 l -3.12562,21.19782 c -0.41991,2.85309 -2.97,4.90547 -5.84288,4.69481 l -54.510932,-3.88913 c -2.737125,-0.19651 -4.914094,-2.37515 -5.104969,-5.11228 L 72.689428,225.49663 26.673178,221.06 Z"
       fill="#478cbf"
       id="path13"
       style="stroke-width:0.9375" /><path
       d="m 92.552813,129.60687 c -17.025001,0 -30.835313,13.79626 -30.835313,30.82407 0,17.03906 13.809375,30.84187 30.835312,30.84187 17.033438,0 30.839998,-13.80281 30.839998,-30.84187 0,-17.02782 -13.80656,-30.82407 -30.839997,-30.82407 z m 145.087497,0 c -17.03625,0 -30.84187,13.79626 -30.84187,30.82407 0,17.03906 13.80562,30.84187 30.84187,30.84187 17.02406,0 30.83156,-13.80281 30.83156,-30.84187 0,-17.02782 -13.8075,-30.82407 -30.83156,-30.82407 z M 165.09,147.64438 c -5.48278,0 -9.92625,4.04493 -9.92625,9.02156 v 28.39031 c 0,4.98084 4.44337,9.02156 9.92625,9.02156 5.48287,0 9.9375,-4.04072 9.9375,-9.02156 v -28.39031 c 0,-4.97663 -4.45434,-9.02156 -9.9375,-9.02156 z"
       fill="#ffffff"
       id="path15"
       style="stroke-width:0.9375" /><path
       d="m 95.503125,141.79437 c -11.305312,0 -20.469375,9.16913 -20.469375,20.47125 0,11.30213 9.164438,20.46188 20.469375,20.46188 11.310935,0 20.471255,-9.15994 20.471255,-20.46188 0,-11.30193 -9.16069,-20.47125 -20.471255,-20.47125 z m 139.181255,0 c -11.30251,0 -20.46001,9.16913 -20.46001,20.47125 0,11.30213 9.15816,20.46188 20.46001,20.46188 11.31375,0 20.46937,-9.15994 20.46937,-20.46188 0,-11.30193 -9.156,-20.47125 -20.46937,-20.47125 z"
       fill="#414042"
       id="path17"
       style="stroke-width:0.9375" /></g></svg>
